<svg xmlns="http://www.w3.org/2000/svg" viewBox="0 0 32 32"><title>icon</title><g id="Shower"><path d="M17,7.05V0H15V7.05A10,10,0,0,0,6,17v1H26V17A10,10,0,0,0,17,7.05ZM8.06,16a8,8,0,0,1,15.88,0Z" style="fill:#03a9f4"/><circle cx="12" cy="21" r="1.5" style="fill:#03a9f4"/><circle cx="16" cy="21" r="1.5" style="fill:#03a9f4"/><circle cx="20" cy="21" r="1.5" style="fill:#03a9f4"/><circle cx="12" cy="25" r="1.5" style="fill:#03a9f4"/><circle cx="8" cy="25" r="1.5" style="fill:#03a9f4"/><circle cx="16" cy="25" r="1.5" style="fill:#03a9f4"/><circle cx="20" cy="25" r="1.5" style="fill:#03a9f4"/><circle cx="24" cy="25" r="1.5" style="fill:#03a9f4"/><circle cx="12" cy="29" r="1.5" style="fill:#03a9f4"/><circle cx="8" cy="29" r="1.5" style="fill:#03a9f4"/><circle cx="16" cy="29" r="1.5" style="fill:#03a9f4"/><circle cx="20" cy="29" r="1.5" style="fill:#03a9f4"/><circle cx="24" cy="29" r="1.5" style="fill:#03a9f4"/><circle cx="28" cy="29" r="1.5" style="fill:#03a9f4"/><circle cx="4" cy="29" r="1.5" style="fill:#03a9f4"/></g></svg>