<svg xmlns="http://www.w3.org/2000/svg" viewBox="0 0 32 32"><title>icon</title><g id="Electricity"><path d="M24.58,18.57,13.43,7.42l5.07-5.07a3.07,3.07,0,0,1,4.24,0l6.9,6.9a3,3,0,0,1,0,4.24ZM16.26,7.42l8.32,8.32,3.66-3.66a1,1,0,0,0,0-1.42l-6.9-6.9a1,1,0,0,0-1.41,0Z" style="fill:#03a9f4"/><rect x="18.71" y="2.95" width="2" height="18.68" transform="translate(-2.91 17.54) rotate(-45)" style="fill:#03a9f4"/><rect x="25.22" y="3.44" width="4.67" height="2" transform="translate(4.93 20.79) rotate(-45)" style="fill:#03a9f4"/><rect x="11.95" y="10.57" width="5.84" height="2" transform="translate(-3.82 13.9) rotate(-45)" style="fill:#03a9f4"/><rect x="17.51" y="16.13" width="5.84" height="2" transform="translate(-6.13 19.46) rotate(-45)" style="fill:#03a9f4"/><path d="M11.37,30.53a3,3,0,0,1-2.12-.88l-6.9-6.9a3,3,0,0,1,0-4.24l5.07-5.07L18.57,24.58l-5.07,5.07A3,3,0,0,1,11.37,30.53Zm-4-14.27L3.76,19.92a1,1,0,0,0,0,1.41l6.9,6.9a1,1,0,0,0,1.41,0l3.66-3.66Z" style="fill:#03a9f4"/><rect x="11.29" y="10.38" width="2" height="18.68" transform="translate(-10.34 14.46) rotate(-45)" style="fill:#03a9f4"/><rect x="2.11" y="26.56" width="4.67" height="2" transform="translate(-18.18 11.21) rotate(-45)" style="fill:#03a9f4"/></g></svg>