<svg xmlns="http://www.w3.org/2000/svg" viewBox="0 0 32 32"><defs><style>.cls-1{fill:#03a9f4;}</style></defs><title>icon</title><g id="safe"><g id="Warstwa_30" data-name="Warstwa 30"><path class="cls-1" d="M30,27.59H2V4.41H30Zm-26-2H28V6.41H4Z"/><rect class="cls-1" x="6" y="11" width="2" height="10"/><path class="cls-1" d="M20,22a6,6,0,1,1,6-6A6,6,0,0,1,20,22Zm0-10a4,4,0,1,0,4,4A4,4,0,0,0,20,12Z"/><circle class="cls-1" cx="20" cy="16" r="1"/><rect class="cls-1" x="29" y="9" width="2" height="4"/><rect class="cls-1" x="29" y="19" width="2" height="4"/><rect class="cls-1" x="5" y="27" width="4" height="2"/><rect class="cls-1" x="23" y="27" width="4" height="2"/></g></g></svg>