<svg xmlns="http://www.w3.org/2000/svg" viewBox="0 0 32 32"><title>icon</title><g id="Airconditioner"><path d="M28,4.5a2,2,0,0,1,2,2v8H2v-8a2,2,0,0,1,2-2H28m0-2H4a4,4,0,0,0-4,4v10H32V6.5a4,4,0,0,0-4-4Z" style="fill:#03a9f4"/><path d="M0,14.5v3a4,4,0,0,0,4,4H6v-2H4a2,2,0,0,1-2-2v-1H30v1a2,2,0,0,1-2,2H26v2h2a4,4,0,0,0,4-4v-3Z" style="fill:#03a9f4"/><path d="M16,19.5a1,1,0,0,1-1-1V18a1,1,0,0,1,2,0v.5A1,1,0,0,1,16,19.5Z" style="fill:#03a9f4"/><path d="M16,27.5a1,1,0,0,1-1-1v-1a1,1,0,0,1,2,0v1A1,1,0,0,1,16,27.5Zm0-4a1,1,0,0,1-1-1v-1a1,1,0,0,1,2,0v1A1,1,0,0,1,16,23.5Z" style="fill:#03a9f4"/><path d="M16,31a1,1,0,0,1-1-1v-.5a1,1,0,0,1,2,0V30A1,1,0,0,1,16,31Z" style="fill:#03a9f4"/><path d="M20.05,19.47a1,1,0,0,1-.94-.66l-.17-.47a1,1,0,0,1,1.88-.69l.17.47a1,1,0,0,1-.94,1.34Z" style="fill:#03a9f4"/><path d="M22.89,27.25a1,1,0,0,1-.94-.66l-.35-1a1,1,0,1,1,1.88-.68l.35,1a1,1,0,0,1-.94,1.34Zm-1.42-3.89a1,1,0,0,1-.94-.66l-.35-1A1,1,0,1,1,22.05,21l.35,1a1,1,0,0,1-.6,1.28A1,1,0,0,1,21.47,23.36Z" style="fill:#03a9f4"/><path d="M24.12,30.64a1,1,0,0,1-.94-.66L23,29.51a1,1,0,0,1,1.88-.69l.17.47a1,1,0,0,1-.94,1.34Z" style="fill:#03a9f4"/><path d="M11.95,19.47A1,1,0,0,1,11,18.13l.17-.47a1,1,0,0,1,1.88.69l-.17.47A1,1,0,0,1,11.95,19.47Z" style="fill:#03a9f4"/><path d="M9.11,27.25a1,1,0,0,1-.94-1.34l.35-1a1,1,0,0,1,1.88.68l-.35,1A1,1,0,0,1,9.11,27.25Zm1.42-3.89a1,1,0,0,1-.34-.06A1,1,0,0,1,9.59,22l.35-1a1,1,0,1,1,1.88.68l-.35,1A1,1,0,0,1,10.53,23.36Z" style="fill:#03a9f4"/><path d="M7.88,30.64a1,1,0,0,1-.94-1.34l.17-.47A1,1,0,0,1,9,29.51L8.82,30A1,1,0,0,1,7.88,30.64Z" style="fill:#03a9f4"/></g></svg>