<svg xmlns="http://www.w3.org/2000/svg" viewBox="0 0 32 32"><title>icon</title><g id="Remote"><path d="M3.09,17.6a4,4,0,0,0,0,5.66l5.66,5.66a4,4,0,0,0,5.66,0L25.72,17.6,14.4,6.28ZM13,27.5a2,2,0,0,1-2.83,0L4.51,21.84a2,2,0,0,1,0-2.83l9.9-9.9,8.49,8.49Z" style="fill:#03a9f4"/><path d="M27.74,4.26a8,8,0,0,0-11.31,0l1.41,1.41a6,6,0,0,1,8.49,8.49l1.41,1.41a8,8,0,0,0,0-11.31Z" style="fill:#03a9f4"/><path d="M25.26,13.1A4.5,4.5,0,0,0,18.9,6.74l1.41,1.41a2.5,2.5,0,0,1,3.54,3.54Z" style="fill:#03a9f4"/><circle cx="10.35" cy="21.65" r="2" transform="translate(-12.27 13.66) rotate(-45)" style="fill:#03a9f4"/></g></svg>