<svg xmlns="http://www.w3.org/2000/svg" viewBox="0 0 32 32"><title>icon</title><g id="Kettle"><path d="M31,15.39,26.53,13l-4.81,4.16q-.36-.4-.76-.76V9.73a8,8,0,0,0-16,0v6.53c-.13.12-.28.23-.41.36A12,12,0,0,0,1,25.28v3a2,2,0,0,0,2,2H3l20-.08a2,2,0,0,0,2-2V25.55a12.56,12.56,0,0,0-.13-1.73ZM7,9.73a6,6,0,0,1,12,0v5.14a11.68,11.68,0,0,0-3.32-1.36A3,3,0,0,0,16,12.19a3,3,0,1,0-6,0,3,3,0,0,0,.32,1.32A11.84,11.84,0,0,0,7,14.8Zm6,3.46a1,1,0,1,1,1-1A1,1,0,0,1,13,13.19Zm10,15L3,28.27V25.18a10,10,0,0,1,10-10h.2A10.24,10.24,0,0,1,23,25.55Zm0-9.47,3.85-3.33,1.26.67-3.85,5.23A12.54,12.54,0,0,0,22.95,18.72Z" style="fill:#03a9f4"/></g></svg>