<svg xmlns="http://www.w3.org/2000/svg" viewBox="0 0 32 32"><title>icon</title><g id="Desk_Lamp" data-name="Desk Lamp"><path d="M15.93,13v1h14V13A6,6,0,0,0,26,7.42V3H20V5H13.84a2,2,0,0,0-3.65,1.51L5.36,11.3A3,3,0,0,0,4.07,11a3,3,0,0,0,0,6,3,3,0,0,0,1.29-.3l4.83,4.83a2,2,0,0,0-.07.51h-1a4,4,0,0,0-4,4v2h14V26a4,4,0,0,0-4-4h-1a2,2,0,0,0-2-2,2,2,0,0,0-.51.07L6.77,15.29a2.9,2.9,0,0,0,0-2.57L11.6,7.88A1.94,1.94,0,0,0,13.84,7H20v.4A6,6,0,0,0,15.93,13ZM4.07,15a1,1,0,1,1,1-1A1,1,0,0,1,4.07,15Zm13,11h-10a2,2,0,0,1,2-2h6A2,2,0,0,1,17.11,26ZM27.8,12H18.05a4,4,0,0,1,3.87-3h2A4,4,0,0,1,27.8,12ZM22,5h2V7H22Z" style="fill:#03a9f4"/></g></svg>