<svg xmlns="http://www.w3.org/2000/svg" viewBox="0 0 32 32"><title>icon</title><g id="Phone"><path d="M29.88,22.36l-4.67-4.67a2.1,2.1,0,0,0-3,0l-1.41,1.41a1.2,1.2,0,0,1-1.55.13,28,28,0,0,1-6.51-6.51,1.2,1.2,0,0,1,.13-1.55l1.41-1.41a2.11,2.11,0,0,0,0-3L9.64,2.12a2.1,2.1,0,0,0-3,0L2.44,6.35A3.2,3.2,0,0,0,2,10.26l2.4,4A39.11,39.11,0,0,0,17.73,27.64l4,2.4a3.2,3.2,0,0,0,3.91-.48l4.23-4.23A2.1,2.1,0,0,0,29.88,22.36Zm-1.41,1.56-4.23,4.23a1.2,1.2,0,0,1-1.47.18l-4-2.4A37.11,37.11,0,0,1,6.08,13.24l-2.4-4a1.2,1.2,0,0,1,.18-1.47L8.09,3.53a.1.1,0,0,1,.14,0L12.9,8.2a.1.1,0,0,1,0,.14L11.49,9.75a3.19,3.19,0,0,0-.34,4.13,29.91,29.91,0,0,0,7,7,3.19,3.19,0,0,0,4.13-.34l1.41-1.41a.1.1,0,0,1,.14,0l4.67,4.67A.1.1,0,0,1,28.47,23.91Z" style="fill:#03a9f4"/></g></svg>