<svg xmlns="http://www.w3.org/2000/svg" viewBox="0 0 32 32"><title>icon</title><g id="Hairdryer"><path d="M10.5,7a5,5,0,1,0,5,5A5,5,0,0,0,10.5,7Zm0,8a3,3,0,1,1,3-3A3,3,0,0,1,10.5,15Z" style="fill:#03a9f4"/><path d="M24.19,6A13.42,13.42,0,0,1,17,4.12c-.77-.38-1.64-.81-2.68-1.27A10,10,0,0,0,3.72,19.52L2,26.24A3,3,0,0,0,4.87,30H11l2.22-8.47a10,10,0,0,0,1.1-.41c1-.44,1.79-.84,2.53-1.21A13.55,13.55,0,0,1,24.25,18h1L25.18,6ZM9.5,28H4.87a1,1,0,0,1-1-1.25l1.57-6A9.84,9.84,0,0,0,10.18,22h.08c.28,0,.56,0,.83,0ZM16,18.12c-.72.35-1.51.75-2.46,1.18a8.19,8.19,0,0,1-3.35.7,8.06,8.06,0,0,1-7.94-7.77A8,8,0,0,1,13.48,4.68c1,.45,1.86.86,2.61,1.23A15.27,15.27,0,0,0,23.2,8l0,8A15.4,15.4,0,0,0,16,18.12Z" style="fill:#03a9f4"/><rect x="26.75" y="7" width="4" height="2" style="fill:#03a9f4"/><rect x="26.75" y="11" width="4" height="2" style="fill:#03a9f4"/><rect x="26.75" y="15" width="4" height="2" style="fill:#03a9f4"/></g></svg>